<?xml version="1.0"?>
<svg xmlns="http://www.w3.org/2000/svg" xmlns:xlink="http://www.w3.org/1999/xlink" xmlns:svgjs="http://svgjs.com/svgjs" version="1.1" width="512" height="512" x="0" y="0" viewBox="0 0 512 512" style="enable-background:new 0 0 512 512" xml:space="preserve" class=""><g><g xmlns="http://www.w3.org/2000/svg"><g><g><g><g><path d="m512 170.886v289.543h-389.336c-6.521 0-11.796-5.285-11.796-11.796v-317.635c0-6.521 5.275-11.796 11.796-11.796h143.051c3.121 0 6.119 1.236 8.334 3.451l32.986 32.986c2.215 2.215 5.213 3.451 8.344 3.451h184.825c6.511.001 11.796 5.286 11.796 11.796z" fill="#d9d9d9" data-original="#756f6f" style="" class=""/></g><path d="m124.281 229.184c0 9.756-5.419 18.244-13.413 22.612v-45.225c7.994 4.369 13.413 12.858 13.413 22.613z" fill="#bfbfbf" data-original="#5b5555" style="" class=""/><circle cx="264.52" cy="149.641" fill="#bfbfbf" r="25.779" data-original="#5b5555" style="" class=""/><g><path d="m512 170.886v289.543h-39.168v-289.543c0-6.511-5.275-11.796-11.796-11.796h39.167c6.512.001 11.797 5.286 11.797 11.796z" fill="#bfbfbf" data-original="#5b5555" style="" class=""/></g><g><circle cx="304.933" cy="289.811" fill="#9dedb4" r="32.666" data-original="#bcea73" style="" class=""/><path d="m337.597 289.807c0 18.048-14.629 32.677-32.662 32.677-6.046 0-11.718-1.642-16.57-4.523 12.823-2.956 22.377-14.435 22.377-28.154 0-13.704-9.539-25.199-22.362-28.154 4.852-2.866 10.509-4.508 16.555-4.508 18.033-.001 32.662 14.629 32.662 32.662z" fill="#84efa3" data-original="#99d53b" style="" class=""/></g><g><path d="m391.699 312.516 120.301 147.917h-395.527c-3.55 0-6.91-1.599-9.15-4.353l-104.657-128.681c-6.268-7.707-.784-19.236 9.15-19.236h370.732c3.551 0 6.912 1.599 9.151 4.353z" fill="#6eefdc" data-original="#70d9e6" style="" class=""/></g><g><path d="m512 460.429h-50.726l-120.294-147.913c-2.246-2.751-5.604-4.358-9.148-4.358h50.716c3.554 0 6.912 1.607 9.148 4.358z" fill="#3ddbc4" data-original="#3ad1e0" style="" class=""/></g></g><g fill="#b9acac"><path d="m152.336 310.475c-4.267 0-7.726-3.459-7.726-7.726v-10.302c0-4.267 3.459-7.726 7.726-7.726s7.726 3.459 7.726 7.726v10.302c0 4.267-3.459 7.726-7.726 7.726z" fill="#cdc9c9" data-original="#b9acac" style="" class=""/><path d="m152.336 271.106c-4.267 0-7.726-3.459-7.726-7.726v-19.378c0-4.267 3.459-7.726 7.726-7.726s7.726 3.459 7.726 7.726v19.378c0 4.266-3.459 7.726-7.726 7.726zm0-48.446c-4.267 0-7.726-3.459-7.726-7.726v-19.378c0-4.267 3.459-7.726 7.726-7.726s7.726 3.459 7.726 7.726v19.378c0 4.266-3.459 7.726-7.726 7.726zm0-48.446c-4.267 0-7.726-3.459-7.726-7.726v-19.379c0-4.267 3.459-7.726 7.726-7.726s7.726 3.459 7.726 7.726v19.379c0 4.267-3.459 7.726-7.726 7.726zm0-48.446c-4.267 0-7.726-3.459-7.726-7.726v-19.379c0-4.267 3.459-7.726 7.726-7.726s7.726 3.459 7.726 7.726v19.378c0 4.267-3.459 7.727-7.726 7.727z" fill="#cdc9c9" data-original="#b9acac" style="" class=""/><path d="m152.336 77.322c-4.267 0-7.726-3.459-7.726-7.726v-10.302c0-4.267 3.459-7.726 7.726-7.726h10.302c4.267 0 7.726 3.459 7.726 7.726s-3.459 7.726-7.726 7.726h-2.575v2.575c-.001 4.268-3.46 7.727-7.727 7.727z" fill="#cdc9c9" data-original="#b9acac" style="" class=""/><path d="m416.737 67.02h-20.328c-4.267 0-7.726-3.459-7.726-7.726s3.459-7.726 7.726-7.726h20.328c4.267 0 7.726 3.459 7.726 7.726s-3.458 7.726-7.726 7.726zm-50.819 0h-20.328c-4.267 0-7.726-3.459-7.726-7.726s3.459-7.726 7.726-7.726h20.328c4.267 0 7.726 3.459 7.726 7.726s-3.459 7.726-7.726 7.726zm-50.82 0h-20.328c-4.267 0-7.726-3.459-7.726-7.726s3.459-7.726 7.726-7.726h20.328c4.267 0 7.726 3.459 7.726 7.726s-3.459 7.726-7.726 7.726zm-50.821 0h-20.328c-4.267 0-7.726-3.459-7.726-7.726s3.459-7.726 7.726-7.726h20.328c4.267 0 7.726 3.459 7.726 7.726s-3.459 7.726-7.726 7.726zm-50.82 0h-20.328c-4.267 0-7.726-3.459-7.726-7.726s3.459-7.726 7.726-7.726h20.328c4.267 0 7.726 3.459 7.726 7.726s-3.459 7.726-7.726 7.726z" fill="#cdc9c9" data-original="#b9acac" style="" class=""/><path d="m457.531 77.322c-4.267 0-7.726-3.459-7.726-7.726v-2.576h-2.575c-4.267 0-7.726-3.459-7.726-7.726s3.459-7.726 7.726-7.726h10.302c4.267 0 7.726 3.459 7.726 7.726v10.302c0 4.267-3.46 7.726-7.727 7.726z" fill="#cdc9c9" data-original="#b9acac" style="" class=""/><path d="m457.531 342.349c-4.267 0-7.726-3.459-7.726-7.726v-21.202c0-4.267 3.459-7.726 7.726-7.726s7.726 3.459 7.726 7.726v21.202c.001 4.267-3.459 7.726-7.726 7.726zm0-53.005c-4.267 0-7.726-3.459-7.726-7.726v-21.202c0-4.267 3.459-7.726 7.726-7.726s7.726 3.459 7.726 7.726v21.202c.001 4.266-3.459 7.726-7.726 7.726zm0-53.005c-4.267 0-7.726-3.459-7.726-7.726v-21.203c0-4.267 3.459-7.726 7.726-7.726s7.726 3.459 7.726 7.726v21.202c.001 4.267-3.459 7.727-7.726 7.727zm0-53.006c-4.267 0-7.726-3.459-7.726-7.726v-21.202c0-4.267 3.459-7.726 7.726-7.726s7.726 3.459 7.726 7.726v21.202c.001 4.267-3.459 7.726-7.726 7.726zm0-53.005c-4.267 0-7.726-3.459-7.726-7.726v-21.202c0-4.267 3.459-7.726 7.726-7.726s7.726 3.459 7.726 7.726v21.202c.001 4.266-3.459 7.726-7.726 7.726z" fill="#cdc9c9" data-original="#b9acac" style="" class=""/><path d="m457.531 384.454c-4.267 0-7.726-3.459-7.726-7.726v-10.302c0-4.267 3.459-7.726 7.726-7.726s7.726 3.459 7.726 7.726v10.302c.001 4.267-3.459 7.726-7.726 7.726z" fill="#cdc9c9" data-original="#b9acac" style="" class=""/></g></g><g><g><circle cx="264.52" cy="123.862" fill="#64f5c6" r="25.779" data-original="#a8e7ef" style="" class=""/><path d="m290.296 123.859c0 14.242-11.545 25.787-25.775 25.787-4.771 0-9.248-1.296-13.076-3.569 10.119-2.332 17.659-11.391 17.659-22.218 0-10.815-7.528-19.885-17.647-22.218 3.829-2.262 8.293-3.558 13.064-3.558 14.231.001 25.775 11.545 25.775 25.776z" fill="#6eefdc" data-original="#70d9e6" style="" class=""/></g></g><g><g><circle cx="98.504" cy="205.788" fill="#a8e7ef" r="25.779" data-original="#64b9fc" style="" class=""/><path d="m124.281 205.785c0 14.242-11.545 25.787-25.775 25.787-4.771 0-9.248-1.296-13.076-3.569 10.119-2.332 17.659-11.391 17.659-22.218 0-10.815-7.528-19.885-17.647-22.218 3.829-2.262 8.293-3.558 13.064-3.558 14.23.001 25.775 11.545 25.775 25.776z" fill="#70d9e6" data-original="#31a7fb" style="" class=""/></g></g><path d="m348.524 210.884 5.492-5.492c3.018-3.017 3.018-7.909 0-10.927-3.017-3.017-7.909-3.017-10.927 0l-5.492 5.492-5.492-5.492c-3.017-3.017-7.909-3.017-10.927 0s-3.018 7.909 0 10.927l5.492 5.492-5.492 5.492c-3.018 3.017-3.018 7.909 0 10.927 1.509 1.509 3.486 2.263 5.463 2.263s3.955-.755 5.463-2.263l5.492-5.492 5.492 5.492c1.509 1.509 3.486 2.263 5.463 2.263s3.955-.755 5.463-2.263c3.018-3.017 3.018-7.909 0-10.927z" fill="#64f5c6" data-original="#a8e7ef" style="" class=""/><path d="m99.145 74.789 5.492-5.492c3.018-3.017 3.018-7.909 0-10.927-3.017-3.017-7.909-3.017-10.927 0l-5.492 5.492-5.492-5.492c-3.017-3.017-7.909-3.017-10.927 0s-3.018 7.909 0 10.927l5.492 5.492-5.491 5.492c-3.018 3.017-3.018 7.909 0 10.927 1.509 1.509 3.486 2.263 5.463 2.263s3.955-.755 5.463-2.263l5.492-5.492 5.492 5.492c1.509 1.509 3.486 2.263 5.463 2.263s3.955-.755 5.463-2.263c3.018-3.017 3.018-7.909 0-10.927z" fill="#9dedb4" data-original="#bcea73" style="" class=""/></g><g><path d="m422.426 425.737h-104.067c-3.217 0-6.249-1.503-8.198-4.063l-26.67-35.043c-2.581-3.391-.162-8.27 4.099-8.27h104.067c3.217 0 6.249 1.503 8.198 4.063l26.67 35.043c2.581 3.39.163 8.27-4.099 8.27z" fill="#f8f3f1" data-original="#f8f3f1" style="" class=""/><path d="m422.426 425.734h-33.481c4.265 0 6.686-4.873 4.1-8.272l-26.671-35.036c-1.947-2.565-4.976-4.069-8.19-4.069h33.471c3.224 0 6.253 1.504 8.2 4.069l26.671 35.036c2.575 3.4.165 8.272-4.1 8.272z" fill="#efe2dd" data-original="#efe2dd" style="" class=""/></g><g fill="#f8f3f1"><path d="m256 433.461h-47.272c-4.267 0-7.726-3.459-7.726-7.726s3.459-7.726 7.726-7.726h47.272c4.267 0 7.726 3.459 7.726 7.726s-3.459 7.726-7.726 7.726z" fill="#f8f3f1" data-original="#f8f3f1" style="" class=""/><path d="m238.749 407.834h-20.065c-4.267 0-7.726-3.459-7.726-7.726s3.459-7.726 7.726-7.726h20.065c4.267 0 7.726 3.459 7.726 7.726.001 4.267-3.458 7.726-7.726 7.726z" fill="#f8f3f1" data-original="#f8f3f1" style="" class=""/></g></g></g></svg>
