<svg width="626" height="61" viewBox="0 0 626 61" fill="none" xmlns="http://www.w3.org/2000/svg">
<path d="M9.78125 28.6875L27.5938 34.9688V43.7188L0.6875 32.3125V24.9375L27.5938 13.5312V22.2812L9.78125 28.6875ZM576.625 51.9062H569.906L586.656 2.5H593.375L576.625 51.9062ZM616.156 28.5938L598 22.25V13.5625L625.219 24.9688V32.3125L598 43.75V35.0312L616.156 28.5938Z" fill="#44CF6C"/>
<path d="M59.2188 36.0625C59.2188 34.2917 58.5938 32.9375 57.3438 32C56.0938 31.0417 53.8438 30.0417 50.5938 29C47.3438 27.9375 44.7708 26.8958 42.875 25.875C37.7083 23.0833 35.125 19.3229 35.125 14.5938C35.125 12.1354 35.8125 9.94792 37.1875 8.03125C38.5833 6.09375 40.5729 4.58333 43.1562 3.5C45.7604 2.41667 48.6771 1.875 51.9062 1.875C55.1562 1.875 58.0521 2.46875 60.5938 3.65625C63.1354 4.82292 65.1042 6.47917 66.5 8.625C67.9167 10.7708 68.625 13.2083 68.625 15.9375H59.25C59.25 13.8542 58.5938 12.2396 57.2812 11.0938C55.9688 9.92708 54.125 9.34375 51.75 9.34375C49.4583 9.34375 47.6771 9.83333 46.4062 10.8125C45.1354 11.7708 44.5 13.0417 44.5 14.625C44.5 16.1042 45.2396 17.3438 46.7188 18.3438C48.2188 19.3438 50.4167 20.2812 53.3125 21.1562C58.6458 22.7604 62.5312 24.75 64.9688 27.125C67.4062 29.5 68.625 32.4583 68.625 36C68.625 39.9375 67.1354 43.0312 64.1562 45.2812C61.1771 47.5104 57.1667 48.625 52.125 48.625C48.625 48.625 45.4375 47.9896 42.5625 46.7188C39.6875 45.4271 37.4896 43.6667 35.9688 41.4375C34.4688 39.2083 33.7188 36.625 33.7188 33.6875H43.125C43.125 38.7083 46.125 41.2188 52.125 41.2188C54.3542 41.2188 56.0938 40.7708 57.3438 39.875C58.5938 38.9583 59.2188 37.6875 59.2188 36.0625ZM89.9688 48.625C85.0104 48.625 80.9688 47.1042 77.8438 44.0625C74.7396 41.0208 73.1875 36.9688 73.1875 31.9062V31.0312C73.1875 27.6354 73.8438 24.6042 75.1562 21.9375C76.4688 19.25 78.3229 17.1875 80.7188 15.75C83.1354 14.2917 85.8854 13.5625 88.9688 13.5625C93.5938 13.5625 97.2292 15.0208 99.875 17.9375C102.542 20.8542 103.875 24.9896 103.875 30.3438V34.0312H82.3438C82.6354 36.2396 83.5104 38.0104 84.9688 39.3438C86.4479 40.6771 88.3125 41.3438 90.5625 41.3438C94.0417 41.3438 96.7604 40.0833 98.7188 37.5625L103.156 42.5312C101.802 44.4479 99.9688 45.9479 97.6562 47.0312C95.3438 48.0938 92.7812 48.625 89.9688 48.625ZM88.9375 20.875C87.1458 20.875 85.6875 21.4792 84.5625 22.6875C83.4583 23.8958 82.75 25.625 82.4375 27.875H95V27.1562C94.9583 25.1562 94.4167 23.6146 93.375 22.5312C92.3333 21.4271 90.8542 20.875 88.9375 20.875ZM128.625 48C128.208 47.1875 127.906 46.1771 127.719 44.9688C125.531 47.4062 122.688 48.625 119.188 48.625C115.875 48.625 113.125 47.6667 110.938 45.75C108.771 43.8333 107.688 41.4167 107.688 38.5C107.688 34.9167 109.01 32.1667 111.656 30.25C114.323 28.3333 118.167 27.3646 123.188 27.3438H127.344V25.4062C127.344 23.8438 126.938 22.5938 126.125 21.6562C125.333 20.7188 124.073 20.25 122.344 20.25C120.823 20.25 119.625 20.6146 118.75 21.3438C117.896 22.0729 117.469 23.0729 117.469 24.3438H108.438C108.438 22.3854 109.042 20.5729 110.25 18.9062C111.458 17.2396 113.167 15.9375 115.375 15C117.583 14.0417 120.062 13.5625 122.812 13.5625C126.979 13.5625 130.281 14.6146 132.719 16.7188C135.177 18.8021 136.406 21.7396 136.406 25.5312V40.1875C136.427 43.3958 136.875 45.8229 137.75 47.4688V48H128.625ZM121.156 41.7188C122.49 41.7188 123.719 41.4271 124.844 40.8438C125.969 40.2396 126.802 39.4375 127.344 38.4375V32.625H123.969C119.448 32.625 117.042 34.1875 116.75 37.3125L116.719 37.8438C116.719 38.9688 117.115 39.8958 117.906 40.625C118.698 41.3542 119.781 41.7188 121.156 41.7188ZM162.344 22.6562C161.115 22.4896 160.031 22.4062 159.094 22.4062C155.677 22.4062 153.438 23.5625 152.375 25.875V48H143.344V14.1875H151.875L152.125 18.2188C153.938 15.1146 156.448 13.5625 159.656 13.5625C160.656 13.5625 161.594 13.6979 162.469 13.9688L162.344 22.6562ZM180.156 41.3438C181.823 41.3438 183.177 40.8854 184.219 39.9688C185.26 39.0521 185.802 37.8333 185.844 36.3125H194.312C194.292 38.6042 193.667 40.7083 192.438 42.625C191.208 44.5208 189.521 46 187.375 47.0625C185.25 48.1042 182.896 48.625 180.312 48.625C175.479 48.625 171.667 47.0938 168.875 44.0312C166.083 40.9479 164.688 36.6979 164.688 31.2812V30.6875C164.688 25.4792 166.073 21.3229 168.844 18.2188C171.615 15.1146 175.417 13.5625 180.25 13.5625C184.479 13.5625 187.865 14.7708 190.406 17.1875C192.969 19.5833 194.271 22.7812 194.312 26.7812H185.844C185.802 25.0312 185.26 23.6146 184.219 22.5312C183.177 21.4271 181.802 20.875 180.094 20.875C177.99 20.875 176.396 21.6458 175.312 23.1875C174.25 24.7083 173.719 27.1875 173.719 30.625V31.5625C173.719 35.0417 174.25 37.5417 175.312 39.0625C176.375 40.5833 177.99 41.3438 180.156 41.3438ZM208.281 17.875C210.677 15 213.688 13.5625 217.312 13.5625C224.646 13.5625 228.365 17.8229 228.469 26.3438V48H219.438V26.5938C219.438 24.6562 219.021 23.2292 218.188 22.3125C217.354 21.375 215.969 20.9062 214.031 20.9062C211.385 20.9062 209.469 21.9271 208.281 23.9688V48H199.25V0H208.281V17.875ZM235.875 48V2.5H249.875C253.875 2.5 257.448 3.40625 260.594 5.21875C263.76 7.01042 266.229 9.57292 268 12.9062C269.771 16.2188 270.656 19.9896 270.656 24.2188V26.3125C270.656 30.5417 269.781 34.3021 268.031 37.5938C266.302 40.8854 263.854 43.4375 260.688 45.25C257.521 47.0625 253.948 47.9792 249.969 48H235.875ZM245.25 10.0938V40.4688H249.781C253.448 40.4688 256.25 39.2708 258.188 36.875C260.125 34.4792 261.115 31.0521 261.156 26.5938V24.1875C261.156 19.5625 260.198 16.0625 258.281 13.6875C256.365 11.2917 253.562 10.0938 249.875 10.0938H245.25ZM292.469 48.625C287.51 48.625 283.469 47.1042 280.344 44.0625C277.24 41.0208 275.688 36.9688 275.688 31.9062V31.0312C275.688 27.6354 276.344 24.6042 277.656 21.9375C278.969 19.25 280.823 17.1875 283.219 15.75C285.635 14.2917 288.385 13.5625 291.469 13.5625C296.094 13.5625 299.729 15.0208 302.375 17.9375C305.042 20.8542 306.375 24.9896 306.375 30.3438V34.0312H284.844C285.135 36.2396 286.01 38.0104 287.469 39.3438C288.948 40.6771 290.812 41.3438 293.062 41.3438C296.542 41.3438 299.26 40.0833 301.219 37.5625L305.656 42.5312C304.302 44.4479 302.469 45.9479 300.156 47.0312C297.844 48.0938 295.281 48.625 292.469 48.625ZM291.438 20.875C289.646 20.875 288.188 21.4792 287.062 22.6875C285.958 23.8958 285.25 25.625 284.938 27.875H297.5V27.1562C297.458 25.1562 296.917 23.6146 295.875 22.5312C294.833 21.4271 293.354 20.875 291.438 20.875ZM323.75 36.9688L330.031 14.1875H339.469L328.062 48H319.438L308.031 14.1875H317.469L323.75 36.9688ZM358.594 48.625C353.635 48.625 349.594 47.1042 346.469 44.0625C343.365 41.0208 341.812 36.9688 341.812 31.9062V31.0312C341.812 27.6354 342.469 24.6042 343.781 21.9375C345.094 19.25 346.948 17.1875 349.344 15.75C351.76 14.2917 354.51 13.5625 357.594 13.5625C362.219 13.5625 365.854 15.0208 368.5 17.9375C371.167 20.8542 372.5 24.9896 372.5 30.3438V34.0312H350.969C351.26 36.2396 352.135 38.0104 353.594 39.3438C355.073 40.6771 356.938 41.3438 359.188 41.3438C362.667 41.3438 365.385 40.0833 367.344 37.5625L371.781 42.5312C370.427 44.4479 368.594 45.9479 366.281 47.0312C363.969 48.0938 361.406 48.625 358.594 48.625ZM357.562 20.875C355.771 20.875 354.312 21.4792 353.188 22.6875C352.083 23.8958 351.375 25.625 351.062 27.875H363.625V27.1562C363.583 25.1562 363.042 23.6146 362 22.5312C360.958 21.4271 359.479 20.875 357.562 20.875ZM387.188 48H378.125V0H387.188V48ZM393.25 30.7812C393.25 27.4271 393.896 24.4375 395.188 21.8125C396.479 19.1875 398.333 17.1562 400.75 15.7188C403.188 14.2812 406.01 13.5625 409.219 13.5625C413.781 13.5625 417.5 14.9583 420.375 17.75C423.271 20.5417 424.885 24.3333 425.219 29.125L425.281 31.4375C425.281 36.625 423.833 40.7917 420.938 43.9375C418.042 47.0625 414.156 48.625 409.281 48.625C404.406 48.625 400.51 47.0625 397.594 43.9375C394.698 40.8125 393.25 36.5625 393.25 31.1875V30.7812ZM402.281 31.4375C402.281 34.6458 402.885 37.1042 404.094 38.8125C405.302 40.5 407.031 41.3438 409.281 41.3438C411.469 41.3438 413.177 40.5104 414.406 38.8438C415.635 37.1562 416.25 34.4688 416.25 30.7812C416.25 27.6354 415.635 25.1979 414.406 23.4688C413.177 21.7396 411.448 20.875 409.219 20.875C407.01 20.875 405.302 21.7396 404.094 23.4688C402.885 25.1771 402.281 27.8333 402.281 31.4375ZM461.281 31.4062C461.281 36.6146 460.094 40.7917 457.719 43.9375C455.365 47.0625 452.177 48.625 448.156 48.625C444.74 48.625 441.979 47.4375 439.875 45.0625V61H430.844V14.1875H439.219L439.531 17.5C441.719 14.875 444.573 13.5625 448.094 13.5625C452.26 13.5625 455.5 15.1042 457.812 18.1875C460.125 21.2708 461.281 25.5208 461.281 30.9375V31.4062ZM452.25 30.75C452.25 27.6042 451.688 25.1771 450.562 23.4688C449.458 21.7604 447.844 20.9062 445.719 20.9062C442.885 20.9062 440.938 21.9896 439.875 24.1562V38C440.979 40.2292 442.948 41.3438 445.781 41.3438C450.094 41.3438 452.25 37.8125 452.25 30.75ZM482.469 48.625C477.51 48.625 473.469 47.1042 470.344 44.0625C467.24 41.0208 465.688 36.9688 465.688 31.9062V31.0312C465.688 27.6354 466.344 24.6042 467.656 21.9375C468.969 19.25 470.823 17.1875 473.219 15.75C475.635 14.2917 478.385 13.5625 481.469 13.5625C486.094 13.5625 489.729 15.0208 492.375 17.9375C495.042 20.8542 496.375 24.9896 496.375 30.3438V34.0312H474.844C475.135 36.2396 476.01 38.0104 477.469 39.3438C478.948 40.6771 480.812 41.3438 483.062 41.3438C486.542 41.3438 489.26 40.0833 491.219 37.5625L495.656 42.5312C494.302 44.4479 492.469 45.9479 490.156 47.0312C487.844 48.0938 485.281 48.625 482.469 48.625ZM481.438 20.875C479.646 20.875 478.188 21.4792 477.062 22.6875C475.958 23.8958 475.25 25.625 474.938 27.875H487.5V27.1562C487.458 25.1562 486.917 23.6146 485.875 22.5312C484.833 21.4271 483.354 20.875 481.438 20.875ZM520.531 22.6562C519.302 22.4896 518.219 22.4062 517.281 22.4062C513.865 22.4062 511.625 23.5625 510.562 25.875V48H501.531V14.1875H510.062L510.312 18.2188C512.125 15.1146 514.635 13.5625 517.844 13.5625C518.844 13.5625 519.781 13.6979 520.656 13.9688L520.531 22.6562ZM543.219 38.6562C543.219 37.5521 542.667 36.6875 541.562 36.0625C540.479 35.4167 538.729 34.8438 536.312 34.3438C528.271 32.6562 524.25 29.2396 524.25 24.0938C524.25 21.0938 525.49 18.5938 527.969 16.5938C530.469 14.5729 533.729 13.5625 537.75 13.5625C542.042 13.5625 545.469 14.5729 548.031 16.5938C550.615 18.6146 551.906 21.2396 551.906 24.4688H542.875C542.875 23.1771 542.458 22.1146 541.625 21.2812C540.792 20.4271 539.49 20 537.719 20C536.198 20 535.021 20.3438 534.188 21.0312C533.354 21.7188 532.938 22.5938 532.938 23.6562C532.938 24.6562 533.406 25.4688 534.344 26.0938C535.302 26.6979 536.906 27.2292 539.156 27.6875C541.406 28.125 543.302 28.625 544.844 29.1875C549.615 30.9375 552 33.9688 552 38.2812C552 41.3646 550.677 43.8646 548.031 45.7812C545.385 47.6771 541.969 48.625 537.781 48.625C534.948 48.625 532.427 48.125 530.219 47.125C528.031 46.1042 526.312 44.7188 525.062 42.9688C523.812 41.1979 523.188 39.2917 523.188 37.25H531.75C531.833 38.8542 532.427 40.0833 533.531 40.9375C534.635 41.7917 536.115 42.2188 537.969 42.2188C539.698 42.2188 541 41.8958 541.875 41.25C542.771 40.5833 543.219 39.7188 543.219 38.6562Z" fill="#636363"/>
</svg>
