<svg width="136" height="150" viewBox="0 0 136 150" fill="none" xmlns="http://www.w3.org/2000/svg">
<path d="M58.6658 8.52951L54.799 0L50.9323 8.52951L43.1989 9.5957L49.6486 15.6346L47.0656 25.5885L54.799 19.9079L62.5325 25.5885L59.9495 15.6346L66.3992 9.5957L58.6658 8.52951ZM123.116 99.5053L116.666 85.2951L110.217 99.5053L97.3329 101.288L108.075 111.361L103.783 127.943L116.666 118.466L129.55 127.943L125.258 111.361L136 101.288L123.116 99.5053ZM25.1568 28.4289L19.9986 17.059L14.8404 28.4289L4.53179 29.8533L13.1236 37.9051L9.68998 51.1771L19.9986 43.5943L30.3073 51.1771L26.8736 37.9051L35.4655 29.8533L25.1568 28.4289ZM0 119.413C0 123.968 1.60855 128.25 4.53179 131.474L16.797 145.002C19.7202 148.226 23.6024 150 27.7321 150C31.8617 150 35.7439 148.226 38.6671 145.002L128.267 46.1788C131.19 42.9546 132.798 38.6728 132.798 34.118C132.798 29.5633 131.19 25.2815 128.267 22.0573L116.001 8.52951C110.155 2.0812 99.9777 2.0812 94.1312 8.52951L4.53179 107.352C1.60855 110.577 0 114.858 0 119.413ZM105.066 20.5902L117.332 34.118L89.5995 64.7049L77.3342 51.1771L105.066 20.5902Z" fill="white"/>
</svg>
