<?xml version="1.0"?>
<svg xmlns="http://www.w3.org/2000/svg" xmlns:xlink="http://www.w3.org/1999/xlink" xmlns:svgjs="http://svgjs.com/svgjs" version="1.1" width="512" height="512" x="0" y="0" viewBox="0 0 512 512" style="enable-background:new 0 0 512 512" xml:space="preserve" class=""><g><g xmlns="http://www.w3.org/2000/svg"><g><g><g><path d="m338.456 512h-25.685c-5.605 0-10.149-4.544-10.149-10.149v-278.931h45.982v278.931c.001 5.605-4.543 10.149-10.148 10.149z" fill="#dfdfdf" data-original="#756f6f" style="" class=""/><path d="m302.623 222.92h45.982v34.48h-45.982z" fill="#bfbfbf" data-original="#5b5555" style="" class=""/></g><g><path d="m463.404 226.6h-278.915v-182.414h213.488c42.092 0 76.215 34.123 76.215 76.215v95.411c0 5.958-4.83 10.788-10.788 10.788z" fill="#3ddbc4" data-original="#31a7fb" style="" class=""/><g fill="#1c96f9"><path d="m325.614 145.332v16.294h-64.796c-7.382 0-13.735 5.673-14.082 13.047-.371 7.873 5.903 14.373 13.695 14.373h113.12c12.019 0 21.762-9.743 21.762-21.762v-21.952c0-6.168-5-11.169-11.169-11.169h-47.361c-6.168 0-11.169 5-11.169 11.169z" fill="#3cc9b5" data-original="#1c96f9" style="" class=""/><path d="m474.195 120.4v95.416c0 5.955-4.833 10.788-10.788 10.788h-34.93c5.955 0 10.788-4.833 10.788-10.788v-95.416c0-42.093-34.121-76.215-76.214-76.215h34.93c42.093.001 76.214 34.122 76.214 76.215z" fill="#3cc9b5" data-original="#1c96f9" style="" class=""/></g></g><g><path d="m260.704 226.6h-152.43v-106.199c0-42.092 34.123-76.215 76.215-76.215 42.092 0 76.215 34.123 76.215 76.215z" fill="#dfdfdf" data-original="#756f6f" style="" class=""/><path d="m260.704 226.6h-124.114v-97.259c0-34.273 27.784-62.057 62.057-62.057 34.273 0 62.057 27.784 62.057 62.057z" fill="#bfbfbf" data-original="#5b5555" style="" class=""/></g><g><path d="m108.274 226.6h152.43v106.199c0 42.092-34.123 76.215-76.215 76.215-42.092 0-76.215-34.123-76.215-76.215z" fill="#96fff0" data-original="#8dcafc" style="" class=""/><path d="m260.7 226.604v106.193c0 42.093-34.121 76.214-76.214 76.214-6.192 0-12.212-.744-17.983-2.136 33.409-8.08 58.231-38.177 58.231-74.078v-106.193z" fill="#6eefdc" data-original="#64b9fc" style="" class=""/></g><g fill="#1c96f9"><path d="m151.869 249.301c-4.204 0-7.611-3.408-7.611-7.611v-21.046c0-4.204 3.407-7.611 7.611-7.611s7.611 3.408 7.611 7.611v21.046c.001 4.204-3.406 7.611-7.611 7.611z" fill="#3cc9b5" data-original="#1c96f9" style="" class=""/><path d="m217.109 249.301c-4.204 0-7.611-3.408-7.611-7.611v-21.046c0-4.204 3.407-7.611 7.611-7.611s7.611 3.408 7.611 7.611v21.046c.001 4.204-3.407 7.611-7.611 7.611z" fill="#3cc9b5" data-original="#1c96f9" style="" class=""/></g></g><g><circle cx="115.009" cy="88.861" fill="#a8e7ef" r="28.662" data-original="#a8e7ef" style="" class=""/><path d="m143.669 88.857c0 15.835-12.836 28.671-28.658 28.671-5.305 0-10.282-1.441-14.539-3.969 11.251-2.593 19.634-12.666 19.634-24.703 0-12.024-8.37-22.11-19.621-24.703 4.257-2.515 9.221-3.956 14.526-3.956 15.822.002 28.658 12.838 28.658 28.66z" fill="#70d9e6" data-original="#70d9e6" style="" class=""/></g><path d="m97.111 18.533 5.539-5.539c2.973-2.972 2.973-7.791.001-10.764-2.972-2.973-7.792-2.973-10.764 0l-5.54 5.54-5.54-5.54c-2.971-2.973-7.791-2.972-10.764 0-2.972 2.973-2.972 7.792.001 10.764l5.539 5.539-5.539 5.539c-2.973 2.972-2.973 7.791-.001 10.764 1.487 1.487 3.434 2.229 5.383 2.229 1.947 0 3.896-.743 5.382-2.229l5.54-5.54 5.54 5.54c1.486 1.487 3.434 2.229 5.382 2.229 1.947 0 3.896-.743 5.383-2.229 2.972-2.973 2.972-7.792-.001-10.764z" fill="#9dedb4" data-original="#bcea73" style="" class=""/><g><circle cx="189.799" cy="133.234" fill="#9dedb4" r="23.296" data-original="#bcea73" style="" class=""/><path d="m213.093 133.231c0 12.871-10.433 23.304-23.293 23.304-4.312 0-8.357-1.171-11.817-3.226 9.145-2.108 15.958-10.294 15.958-20.078 0-9.773-6.803-17.97-15.947-20.078 3.46-2.044 7.495-3.215 11.806-3.215 12.86 0 23.293 10.433 23.293 23.293z" fill="#44cf6c" data-original="#99d53b" style="" class=""/></g></g><path d="m65.618 137.702 4.055-4.055c2.972-2.972 2.972-7.791 0-10.764s-7.791-2.973-10.765 0l-4.055 4.054-4.055-4.054c-2.973-2.972-7.792-2.972-10.765 0-2.972 2.973-2.972 7.792 0 10.764l4.055 4.055-4.055 4.055c-2.972 2.972-2.972 7.791 0 10.764 1.487 1.487 3.434 2.229 5.383 2.229 1.947 0 3.896-.743 5.383-2.229l4.055-4.054 4.055 4.054c1.487 1.486 3.435 2.229 5.383 2.229 1.947 0 3.896-.743 5.383-2.229 2.972-2.973 2.972-7.792 0-10.764z" fill="#9dedb4" data-original="#bcea73" style="" class=""/><path d="m325.614 119.12v16.294h-64.796c-7.382 0-13.735 5.673-14.082 13.047-.371 7.873 5.903 14.373 13.695 14.373h113.12c12.019 0 21.762-9.743 21.762-21.762v-21.952c0-6.168-5-11.169-11.169-11.169h-47.361c-6.168 0-11.169 5.001-11.169 11.169z" fill="#84efa3" data-original="#a3e440" style="" class=""/><path d="m395.316 119.125v21.952c0 12.016-9.743 21.759-21.769 21.759h-27.127c12.016 0 21.759-9.743 21.759-21.759v-21.952c0-6.17-5.003-11.174-11.174-11.174h27.138c6.17 0 11.173 5.004 11.173 11.174z" fill="#44cf6c" data-original="#99d53b" style="" class=""/></g></g></svg>
